<svg width="512" height="512" viewBox="0 0 512 512" xmlns="http://www.w3.org/2000/svg">
  <defs>
    <linearGradient id="backgroundGradient" x1="0%" y1="0%" x2="100%" y2="100%">
      <stop offset="0%" style="stop-color:#667eea;stop-opacity:1" />
      <stop offset="100%" style="stop-color:#764ba2;stop-opacity:1" />
    </linearGradient>
    <linearGradient id="iconGradient" x1="0%" y1="0%" x2="100%" y2="100%">
      <stop offset="0%" style="stop-color:#ffffff;stop-opacity:1" />
      <stop offset="100%" style="stop-color:#f8fafc;stop-opacity:0.9" />
    </linearGradient>
    <filter id="shadow" x="-50%" y="-50%" width="200%" height="200%">
      <feDropShadow dx="0" dy="4" stdDeviation="8" flood-color="#000000" flood-opacity="0.3"/>
    </filter>
  </defs>
  
  <!-- Background Circle -->
  <circle cx="256" cy="256" r="240" fill="url(#backgroundGradient)" filter="url(#shadow)"/>
  
  <!-- Inner Circle -->
  <circle cx="256" cy="256" r="200" fill="none" stroke="url(#iconGradient)" stroke-width="3" opacity="0.3"/>
  
  <!-- People/HR Icon -->
  <g fill="url(#iconGradient)" transform="translate(256, 256)">
    <!-- Person 1 -->
    <g transform="translate(-60, -40)">
      <circle cx="0" cy="-25" r="18" />
      <path d="M -25 20 Q -25 -5 0 -5 Q 25 -5 25 20 L 20 35 L -20 35 Z" />
    </g>
    
    <!-- Person 2 -->
    <g transform="translate(0, -40)">
      <circle cx="0" cy="-25" r="18" />
      <path d="M -25 20 Q -25 -5 0 -5 Q 25 -5 25 20 L 20 35 L -20 35 Z" />
    </g>
    
    <!-- Person 3 -->
    <g transform="translate(60, -40)">
      <circle cx="0" cy="-25" r="18" />
      <path d="M -25 20 Q -25 -5 0 -5 Q 25 -5 25 20 L 20 35 L -20 35 Z" />
    </g>
    
    <!-- Dashboard/Analytics Elements -->
    <!-- Chart bars -->
    <g transform="translate(-80, 40)">
      <rect x="0" y="20" width="15" height="40" rx="2" />
      <rect x="20" y="10" width="15" height="50" rx="2" />
      <rect x="40" y="25" width="15" height="35" rx="2" />
      <rect x="60" y="5" width="15" height="55" rx="2" />
    </g>
    
    <!-- Connecting lines/network -->
    <g stroke="url(#iconGradient)" stroke-width="2" fill="none" opacity="0.6">
      <path d="M -40 -20 Q 0 10 40 -20" />
      <path d="M -60 -10 L -20 20" />
      <path d="M 60 -10 L 20 20" />
    </g>
    
    <!-- Data points/dots -->
    <g fill="url(#iconGradient)">
      <circle cx="80" cy="40" r="4" />
      <circle cx="100" cy="30" r="4" />
      <circle cx="120" cy="50" r="4" />
    </g>
  </g>
  
  <!-- Subtle outer ring -->
  <circle cx="256" cy="256" r="240" fill="none" stroke="url(#iconGradient)" stroke-width="2" opacity="0.4"/>
</svg>
